<svg height="512" viewBox="0 0 512 512" width="512" xmlns="http://www.w3.org/2000/svg"><g><g><path d="m144 152-24 64-24-16v-64z" fill="#52b2d8"/><path d="m216 200-144-72-24-40 16-24h40l32-8 16 8 56-40 32 16-48 48 32 64 32-8 24 8z" fill="#dff1fc"/><g fill="#94d3f2"><path d="m216 176-104-72-46.667-40h-1.333l-16 24 24 40 144 72 62.118-46.588z"/><path d="m240 40-32-16-56 40 40 24z"/></g><path d="m104 64 80 56 8-32-40-24-16-8z" fill="#00a8e7"/><ellipse cx="46" cy="60" fill="#fcc200" rx="40" ry="24" transform="matrix(.556 -.831 .831 .556 -29.449 64.838)"/><g><ellipse cx="64" cy="152" fill="#697a7a" rx="16" ry="24" transform="matrix(.399 -.917 .917 .399 -100.913 150.056)"/><path d="m70.648 177.535a40.9 40.9 0 0 1 -16.221-3.527 38.9 38.9 0 0 1 -17.227-14.069c-4.383-6.8-5.31-14.346-2.545-20.7 5.368-12.339 22.464-16.4 38.917-9.243a38.9 38.9 0 0 1 17.228 14.065c4.383 6.8 5.31 14.346 2.545 20.7-3.578 8.227-12.364 12.774-22.697 12.774zm-13.326-35.08c-4.205 0-7.218 1.38-7.994 3.163-.586 1.347-.092 3.461 1.321 5.653a23.159 23.159 0 0 0 10.16 8.065c8.956 3.895 16.561 2.037 17.863-.954.586-1.347.092-3.461-1.321-5.653a23.159 23.159 0 0 0 -10.16-8.065 25.013 25.013 0 0 0 -9.869-2.209z" fill="#333"/></g><path d="m395.852 360.929c-14.867-10.751-30.273-20.343-48.129-24.558-24.145 33.176-61.663 56.621-102.282 62.425-.225 4.936-.482 10.02-3.334 14.289a10.606 10.606 0 0 1 -5.1 4.162c-6.741 2.455-12.507-3.568-14.97-9.669a34.081 34.081 0 0 1 3.905-32.2c-11.631-2.6-23.318-6.475-34.948-9.076-3.314 5.373-6.825 10.954-12.954 13.425a11.494 11.494 0 0 1 -8.569.2c-6.466-2.605-7.151-9.892-6.028-15.918 2-10.717 9.892-20.01 19-26 4.305.135 8.632.371 12.967.646a48.491 48.491 0 0 0 44.138-22.728c2.843-4.544 5.718-9.09 8.7-13.648-20.4-.439-40.557-.4-60.962-.842a16.111 16.111 0 0 1 -30.938 2.223c-2.361-6.551-1.336-15.243 5-18.131a259.046 259.046 0 0 1 104.646-23.229c28.568-.269 56.1 15.183 82.236 26.732 14.444 6.383 28.607 13.755 40.772 23.824s22.3 23.038 27.048 38.1c1.572 4.992 2.546 10.3 1.715 15.463s-3.689 10.195-8.29 12.691-10.968 1.876-14.356-2.114-3.954-13.737.733-16.067z" fill="#fcc200"/><g><g fill="#35495e"><path d="m239.379 374.781a97.814 97.814 0 0 1 -14.071.45c.211.048.424.1.636.15a34.081 34.081 0 0 0 -3.905 32.2c2.463 6.1 8.229 12.124 14.97 9.669a10.611 10.611 0 0 0 5.1-4.162c2.852-4.269 3.109-9.353 3.334-14.289.808-.115 1.613-.25 2.419-.379-5.112-4.778-8.262-15.239-8.483-23.639z"/><path d="m203.015 338.542a48.253 48.253 0 0 1 -7.6.124c-4.335-.275-8.662-.511-12.967-.646-9.11 5.986-17 15.279-19 26-1.123 6.026-.438 13.313 6.028 15.918a11.494 11.494 0 0 0 8.569-.2c6.129-2.471 9.64-8.052 12.954-13.425.435.1.871.208 1.306.309a32.9 32.9 0 0 1 10.71-28.08z"/><path d="m161.356 285.54c-6.336 2.888-7.361 11.58-5 18.131a16.111 16.111 0 0 0 30.938-2.223c.865.018 1.723.026 2.586.043-4.181-5.333-5.971-16.9-6.054-24.914q-11.434 3.96-22.47 8.963z"/></g><path d="m239.552 315.938a48.551 48.551 0 0 1 -36.537 22.6 32.9 32.9 0 0 0 -10.715 28.076c10.987 2.542 22.02 6.119 33.006 8.617a97.814 97.814 0 0 0 14.071-.45 25.638 25.638 0 0 1 .623-6.781 25.638 25.638 0 0 0 -.621 6.781c11.745-1.417 16.7-5.9 24.621-14.781-7.921 8.878-12.876 13.364-24.621 14.781.217 8.4 3.371 18.861 8.481 23.636 29.385-4.719 57.028-18.639 79.005-38.75-30.469-8.9-62.6-24.749-85.228-47.036-.695 1.102-1.396 2.205-2.085 3.307z" fill="#fcc200"/><path d="m416.05 350.957c-.542-1.722-1.164-3.412-1.842-5.078-5.605 5.388-14.836 10.078-21.849 12.56q1.752 1.233 3.493 2.49c-4.687 2.33-4.12 12.079-.733 16.068s9.756 4.61 14.356 2.114 7.459-7.523 8.29-12.691-.143-10.472-1.715-15.463z" fill="#35495e"/><path d="m389 312.857c-11.251-9.313-24.213-16.316-37.524-22.367-.961 9.449-3 36.028-3.916 46.1.053-.073.108-.143.161-.216 16.463 3.886 30.841 12.346 44.636 22.068 7.013-2.482 16.244-7.172 21.849-12.56-5.253-12.91-14.429-24.107-25.206-33.025z" fill="#fcc200"/><path d="m348.23 289.033c-15.554-6.875-31.607-15.131-48.079-20.632-8.006 14.063-27.807 29.442-52.462 35.375 24.655-5.933 44.456-21.312 52.462-35.375-11.2-3.741-22.594-6.209-34.157-6.1a259.111 259.111 0 0 0 -82.168 14.276c.083 8.017 1.873 19.581 6.054 24.914 19.521.383 38.835.379 58.376.8-2.262 3.452-4.45 6.9-6.619 10.341 22.629 22.287 54.759 38.137 85.228 47.036a156.347 156.347 0 0 0 20.7-23.08c.918-10.069 2.955-36.648 3.916-46.1q-1.624-.734-3.251-1.455z" fill="#fcc200"/></g><path d="m152 456a55.716 55.716 0 0 1 -10.04 32h-117.96v-120a47.8 47.8 0 0 1 33.66 13.79 32.009 32.009 0 1 1 59.89 22.51 55.987 55.987 0 0 1 34.45 51.7z" fill="#dff1fc"/><path d="m124.853 416a7.969 7.969 0 0 1 -4.122-1.149 47.916 47.916 0 0 0 -24.731-6.851 8 8 0 0 1 0-16 63.906 63.906 0 0 1 32.989 9.148 8 8 0 0 1 -4.136 14.852z" fill="#40c6f3"/><path d="m141.96 488a56.054 56.054 0 0 0 7.96-47.14 48.031 48.031 0 0 1 57.08 47.14z" fill="#40c6f3"/><path d="m488 392.43v95.57h-192a40.008 40.008 0 0 1 55.11-37.04 55.965 55.965 0 0 1 47.89-26.96 54.9 54.9 0 0 1 7.95.57 95.721 95.721 0 0 1 72.05-32.57c3.03 0 6.04.14 9 .43z" fill="#dff1fc"/><g fill="#00a8e7"><path d="m229.074 383.284c-1.724 0-3.533-.033-5.444-.1a8 8 0 1 1 .536-15.992c22.035.744 25.014-2.6 33.865-12.522a8 8 0 0 1 11.938 10.652c-11.101 12.446-18.397 17.962-40.895 17.962z"/><path d="m247.685 311.778a8 8 0 0 1 -2.168-15.7 79.084 79.084 0 0 0 33.82-19.609 8 8 0 0 1 11.206 11.421 95.133 95.133 0 0 1 -40.682 23.587 8 8 0 0 1 -2.176.301z"/><path d="m347.412 346.288q-.393 0-.79-.038a8 8 0 0 1 -7.182-8.742l3.222-32.9a8 8 0 0 1 15.924 1.56l-3.222 32.9a8 8 0 0 1 -7.952 7.22z"/><path d="m391.675 366.684a8 8 0 0 1 -2.579-15.575 38.3 38.3 0 0 0 16.851-11.472 8 8 0 0 1 12.2 10.352 54.3 54.3 0 0 1 -23.893 16.266 7.985 7.985 0 0 1 -2.579.429z"/><path d="m191.377 311.048a7.965 7.965 0 0 1 -5.009-1.767 32.588 32.588 0 0 1 -11.88-28.436 8 8 0 0 1 15.917 1.629 16.652 16.652 0 0 0 5.991 14.339 8 8 0 0 1 -5.019 14.235z"/><path d="m192.444 375.825a8 8 0 0 1 -7.889-6.732 40.86 40.86 0 0 1 14.189-37.444 8 8 0 0 1 10.148 12.37 24.928 24.928 0 0 0 -8.539 22.536 8.01 8.01 0 0 1 -7.909 9.27z"/><path d="m248.949 407.338a7.965 7.965 0 0 1 -4.722-1.547 31.807 31.807 0 0 1 -11.778-32.691 8 8 0 1 1 15.515 3.908 15.657 15.657 0 0 0 5.721 15.88 8 8 0 0 1 -4.736 14.453z"/><path d="m323.2 369.18a8.016 8.016 0 0 1 -2.209-.312 199.2 199.2 0 0 1 -87.145-51.911 8 8 0 0 1 11.424-11.2 183.157 183.157 0 0 0 80.13 47.731 8 8 0 0 1 -2.2 15.692z"/></g><circle cx="360" cy="176" fill="#fad6c6" r="128"/><g opacity=".4"><path d="m432.12 258.953c-32.4 19.362-72.081 24.12-109.446 18.792a222.325 222.325 0 0 1 -58.347-16.724 127.986 127.986 0 0 0 223.644-82.727c-4.645 33.219-26.821 63.306-55.851 80.659z" fill="#eaaa94"/></g><path d="m421.592 241.594a23.584 23.584 0 0 1 -7.695-1.314 21.85 21.85 0 0 1 -13.741-13.155 8 8 0 1 1 15.075-5.36 6.859 6.859 0 0 0 9.034 3.116 8 8 0 1 1 8.563 13.516 20.907 20.907 0 0 1 -11.236 3.197z" fill="#f99c78"/><path d="m271.834 186.945c-1.531.705-3.09 1.357-4.684 1.935-11.139 4.04-24.218 4.22-34.6-1.019a128.008 128.008 0 0 0 127.45 116.139q4.761 0 9.435-.347c-24.487-3.448-48.535-16.353-65.855-33.443-21.122-20.851-32.994-53.479-31.746-83.265z" fill="#35495e"/><path d="m267.15 188.88c1.594-.578 3.153-1.23 4.684-1.935q.061-1.477.166-2.945-.105 1.467-.166 2.945c11.685-5.378 21.6-14.229 30.726-23.415 2.5-2.52 4.97-5.08 7.46-7.63q-1.515-2.505-3-5.01 1.485 2.505 3 5.01c7.74-7.98 15.59-15.88 24.76-22.11 24.9-16.9 57.28-19.64 86.84-14 19.772 3.771 42.74 13.488 61.781 22.116a128.014 128.014 0 0 0 -251.401 34.094c0 4 .193 7.955.552 11.861 10.38 5.239 23.459 5.059 34.598 1.019z" fill="#00a8e7"/><path d="m267.687 126.746c12.048-28.987 36.692-52.027 65.62-64.214a145.182 145.182 0 0 1 56.659-11 128.093 128.093 0 0 0 -157.966 124.468c0 4 .193 7.955.552 11.861 8.915 4.5 19.818 4.993 29.776 2.485a105.281 105.281 0 0 1 5.359-63.6z" fill="#0294c1"/><path d="m363.34 123.44a256.31 256.31 0 0 0 -94.74-37.05l-16.49 20.71a157.6 157.6 0 0 1 67.84 44.25z" fill="#fcc200"/><path d="m483.627 141.872c5.128-.4 9.231-4.808 10.884-9.678s1.042-9.573.727-14.707a20.129 20.129 0 0 1 -12.741 6.505c2.152-11.775 2.572-24.355-1.307-35.679a90.647 90.647 0 0 1 -26.286 24.57c-1.8-5.04-3.248-10.359-5.051-15.4a33.793 33.793 0 0 1 -25.365 23.343c18.212 10.638 38.371 17.387 59.139 21.046z" fill="#f98800"/><path d="m483.4 141.906c-19.041-8.628-42.009-18.345-61.781-22.116-29.56-5.64-61.94-2.9-86.84 14-9.17 6.23-17.02 14.13-24.76 22.11 10.01 16.65 20.9 33.22 36.89 44.04 17.6 11.92 43.27 14.77 59.23.73 6.79-5.98 14.06-15.28 22.55-12.16 8.32 3.06 8.07 14.56 10.36 23.12a29.512 29.512 0 0 0 24.56 21.15 28.146 28.146 0 0 0 11.734-1.218 128.434 128.434 0 0 0 8.057-89.656z" fill="#dff1fc"/><g fill="#94d3f2"><path d="m483.4 141.906c-8.148-3.692-17.017-7.581-26.044-11.121a136.585 136.585 0 0 1 4 101.635c.746.15 1.5.274 2.257.36a28.146 28.146 0 0 0 11.734-1.218 128.434 128.434 0 0 0 8.057-89.656z"/><path d="m348.825 181.119a49.976 49.976 0 0 1 42.887-63.958c-20.269.362-40.274 5.323-56.932 16.629-9.17 6.23-17.02 14.13-24.76 22.11 10.01 16.65 20.9 33.22 36.89 44.04a60.115 60.115 0 0 0 23.218 9.335 51.227 51.227 0 0 1 -21.303-28.156z"/></g><path d="m372.039 178.989a8 8 0 0 1 -7.028-11.811 24.287 24.287 0 0 1 42.321-.7 8 8 0 1 1 -13.811 8.079 8.288 8.288 0 0 0 -14.441.238 8 8 0 0 1 -7.041 4.194z" fill="#35495e"/><path d="m466.2 202.147a8.005 8.005 0 0 1 -7.293-11.28 2.72 2.72 0 0 0 -3.781-3.5 8 8 0 0 1 -7.646-14.055 18.72 18.72 0 0 1 26.022 24.116 8 8 0 0 1 -7.302 4.719z" fill="#35495e"/><path d="m64 160a8 8 0 0 1 -5.657-13.657l40-40a8 8 0 0 1 11.314 11.314l-40 40a7.976 7.976 0 0 1 -5.657 2.343z" fill="#dff1fc"/><ellipse cx="104" cy="112" fill="#697a7a" rx="16" ry="24" transform="matrix(.399 -.917 .917 .399 -40.189 162.692)"/><path d="m110.648 137.535a40.9 40.9 0 0 1 -16.221-3.527 38.9 38.9 0 0 1 -17.227-14.069c-4.383-6.8-5.31-14.346-2.545-20.7 5.368-12.339 22.463-16.4 38.917-9.243a38.9 38.9 0 0 1 17.228 14.065c4.383 6.8 5.31 14.346 2.545 20.7-3.578 8.227-12.364 12.774-22.697 12.774zm-13.326-35.08c-4.2 0-7.218 1.38-7.994 3.163-.586 1.347-.092 3.461 1.321 5.653a23.159 23.159 0 0 0 10.16 8.065c8.956 3.895 16.562 2.037 17.863-.954.586-1.347.092-3.461-1.321-5.653a23.159 23.159 0 0 0 -10.16-8.065 25.013 25.013 0 0 0 -9.869-2.209z" fill="#333"/><g fill="#f78663"><circle cx="352" cy="224" r="16"/><circle cx="448" cy="256" r="16"/></g></g><g><path d="m424.265 224.881c-7.793 3.658-8.82-6.423-14.086-8.042-12.546-2.614-12.375 11.746-5.561 17.534 7.693 8.228 22.444 10.31 30.5 1.827 5.161-6.76-3.682-15.9-10.853-11.319z"/><path d="m385.967 154.459c-35.613 4.844-19.625 38.762-4.779 17.875a8.445 8.445 0 0 1 6.112-1.82c5.292.272 6.125 6.381 11.1 7.745 23.528-1.021.863-26.524-12.433-23.8z"/><path d="m469.154 176.021c-26.73-18.289-34.895 18.081-13.259 11.1 1.256.122 1.908-.124 2.856 1.284.556 4.016-1.985 8.767 2.357 11.906 15.364 9.089 17.667-17.577 8.046-24.29z"/><path d="m254.136 405.431c37.721-7.366 72.495-28.9 96.72-59.93 12.968 3.947 24.378 10.843 34.16 17.574.027.04.051.083.079.123-4.581 21.131 16.728 32.622 31.833 20.461 23.767-22.15-3.425-61.1-21.96-76.222 37.5-9.706 70.584-36.941 87.406-72.048 33.654-69.453 2.62-150.687-64.243-182.408-79.086-37.234-169.58 8.63-189.955 89.483l-26.442-52.884c57.609-59.9 62.129-45.938 10.02-72.647-4.384-2.638-9.835 1.323-10.818 2.282l-49.666 35.475c-3.945-1.472-12.61-7.853-17.21-6.451.028-.006-31 7.748-31.045 7.761h-20.637c9.181-43.116-30.016-51.681-55.964-22.722-31.957 34.438-19.541 82.842 19.922 67.5l15.591 25.982c-13.564-1.68-25.727 4.24-28.391 15.94-4.736 26.443 35.654 44.448 54.464 29.149.973 38.592-6.3 27.9 21.149 46.531 14.54 11.347 17.727 4.144 21.781-9.872 4.53-13.589 12.008-36.025 12.028-36.085.027.012 56.143 28.073 67.494 33.747 3.387 2.484 8.333 3.041 16.075-4.064a133.988 133.988 0 0 0 22.757 52.908c-35.529 2.987-79.7 13.806-97.588 28.124-18.93 29.38 23.934 55.566 41.04 26.413 13.623.247 27.205.317 41.067.5a40.231 40.231 0 0 1 -7.2 9.214 41.931 41.931 0 0 1 -14.623 9.135 45.1 45.1 0 0 1 -19.358 2.11c-4.442-.387-9.134-1.049-13.493.235-14.824 9.383-23.584 21.614-24.1 38.766 1.5 25.376 29.521 23.2 39.54 6.031.09-.025.176-.058.266-.086 6.1 1.548 12.7 3.474 19.372 5.263-13.586 43.374 31.722 62.2 38.645 25.6a7.9 7.9 0 0 0 1.284-.888zm68.564-52.765a183.409 183.409 0 0 1 -71.108-40.8c.245-.383.485-.753.727-1.13a95.174 95.174 0 0 0 34.989-19.836 136.535 136.535 0 0 0 54.747 19.9l-2.23 22.775a149.381 149.381 0 0 1 -17.125 19.091zm-51.309-95.752a118.717 118.717 0 0 1 -29.13-57.714 55.994 55.994 0 0 0 21.8-1.047 116.367 116.367 0 0 0 32.806 76.64 109.875 109.875 0 0 0 9.331 8.428 120.071 120.071 0 0 1 -34.812-26.307zm138.47 108.238c-.486 4.153-4.525 9.373-8.62 6.7a7.663 7.663 0 0 1 -.718-4.427 7.991 7.991 0 0 0 3.251-5.48 54.418 54.418 0 0 0 5.84-3.875 20.651 20.651 0 0 1 .247 7.082zm-6.288-22.989a38.322 38.322 0 0 1 -10.258 7.206c-10.5-7.177-22.787-14.493-37.1-18.957l1.806-18.438a139.078 139.078 0 0 0 15.391-.638c11.738 7.436 23.888 19.074 30.161 30.827zm-13.216-50.024c-61.941 6.683-111.442-41.264-110.343-100.375 10.9-6 20.778-15.019 28.564-22.946 23.215 41.042 72.579 69.827 109.355 31.782 4.092-3.524 7.028-6.115 9.033-3.745 6.713 24.627 9.637 38.147 34.25 43.644a119.169 119.169 0 0 1 -70.859 51.64zm-48.112-171.848a101.835 101.835 0 0 0 -24.738 17.06 165.521 165.521 0 0 0 -52.87-34.188q3.213-4.2 6.785-8.106a250.586 250.586 0 0 1 70.823 25.234zm127.465 104.409c-9.05 1.711-19.724-4.937-22.61-14.071-5.072-35.958-23.967-39.7-47.094-15.252-31.625 21.685-65.033-11.267-79.918-38.331 43.838-48.4 106.9-33.248 156.31-10.316 6.438 25.359 4.193 53.907-6.688 77.97zm-.534-98.519c-31.076-13.653-74.408-22.575-107.314-13.081a266.59 266.59 0 0 0 -76.2-31.326c62.348-48.936 151.509-25.028 183.514 44.411zm-213.585-9.362a149.4 149.4 0 0 1 50.448 31.694c-16.2 17.075-39.57 41.9-65.865 33.823a122.308 122.308 0 0 1 2.441-31.377 118.956 118.956 0 0 1 12.976-34.136zm-46.861-83.509 17.77 8.881-35.74 35.735-24.181-14.508zm-73.661 31.169 13.078 6.539 34.653 20.792-3.741 14.966-56.1-39.27zm-106.869 22.11c-16.1-14.176 17.348-63.628 36.1-52.811 15.207 16.495-18.945 62.188-36.1 52.811zm61.133 19.029c6.9-9.138 32.514 3.028 29.087 13.226-5.408 7.694-30.977-1.969-29.092-13.226zm-10.661 52.764c-4.347 8.278-31.226-1.012-29.344-12.764 6.772-8.843 31.163 2.203 29.344 12.764zm49.739 7.088-12.688 38.064-11.723-7.815v-42.775l24.515 12.256c-.033.092-.074.178-.104.27zm86.745 25.164-106.3-53.148c33.674.384 32.347-33.611 8.264-45.756-28.486-15.838-56.823 6.1-37.937 30.919l-1.526-.763-17.797-29.666a73.17 73.17 0 0 0 16.24-20.22h25.376c82.968 55.8 86.363 71.438 93.038 38.921l22.329 44.657a8 8 0 0 0 8.095 4.367 139.21 139.21 0 0 0 -.715 23.89zm-43.056 115.666c-6.337.819-11.09-8.126-7.918-13.091 2.017-1.723 7.093-3.012 10.486-4.655a32.907 32.907 0 0 0 4.455 12.4 8.659 8.659 0 0 1 -7.023 5.346zm46.254-12.424c-8.157-.081-16.555-.169-24.94-.319a16.71 16.71 0 0 1 -3.015-10.74 252.432 252.432 0 0 1 71.701-12.417 135.645 135.645 0 0 0 11.848 10.886 79.194 79.194 0 0 1 -23.664 13.282c-10.019-.847-21.816-.406-31.934-.692zm-43.313 78.439c-11.8.691 3.743-24.037 9.795-26.207q1.381.055 2.861.129a41.156 41.156 0 0 0 -3.595 16.022c-3.197 5.157-5.575 8.65-9.065 10.056zm35.585-9.173c-3.409-.947-6.893-1.909-10.4-2.817a25.379 25.379 0 0 1 6.4-14.16 56.947 56.947 0 0 0 36.027-20.793 199.582 199.582 0 0 0 65.5 39.321 144.771 144.771 0 0 1 -57.513 25.12 16.17 16.17 0 0 1 -3.062-8.521c38.41-15.154 22-36.856 10.451-26.618-8.4 9.452-11.712 13.081-31.747 12.582-5.173-1.201-10.499-2.678-15.66-4.114zm23.654 46.589c-8.153-3.2-7.791-19.277-3.8-26.458q.63-.008 1.244-.02a32.484 32.484 0 0 0 5.712 15.54c-.374 3.853-.052 8.681-3.16 10.938z"/><path d="m159 432c-1.215 0-2.424.053-3.63.13a64.7 64.7 0 0 0 -25.921-30.672c-.673-.458-.936-.6-2.269-1.358 7.735-44.464-47.821-65.266-72.173-30.746a55.623 55.623 0 0 0 -31.007-9.354 8 8 0 0 0 -8 8v120a8 8 0 0 0 8 8h183a8 8 0 0 0 8-8 56.064 56.064 0 0 0 -56-56zm-127-55.2c16.441 2.263 22.561 19.593 31.752 10.179 10.8-29.671 48.88-22.408 48.159 7.035-28.221-8.18-27.621 10.2-18.038 13.7 38.088.308 62.524 38.1 43.7 72.285h-105.573zm123.352 103.2a64.335 64.335 0 0 0 4.151-32 40.074 40.074 0 0 1 38.697 32z"/><path d="m495.92 391.357c-1.578-9.888-15.354-6.963-23.267-7.163a103.664 103.664 0 0 0 -68.861 31.985 63.915 63.915 0 0 0 -55.917 25.3c-53.032-12.046-72.351 54.833-51.818 54.518h190.812c6.935.3 9.834-4.994 9.131-11.487-.1-19.455.176-90.619-.08-93.153zm-15.92 88.643h-174.988c15.861-41.181 48.147-13.9 52.325-24.018 16.675-24.892 30.483-22.408 53.885-24.645 18.1-19.588 41.871-31.855 68.778-31.331z"/></g></g></svg>