<svg id="Capa_1" enable-background="new 0 0 512.002 512.002" height="512" viewBox="0 0 512.002 512.002" width="512" xmlns="http://www.w3.org/2000/svg"><g><g><g><path d="m504.484 331.708.018-245.588c0-39.121-31.714-70.834-70.834-70.834-14.161 0-27.339 4.172-38.406 11.329-10.018-12.071-26.41-18.036-42.645-13.976-20.158 5.041-33.241 23.831-31.778 43.869-33.705 5.448-59.448 34.668-59.448 69.911 0 4.479.435 8.855 1.23 13.103-6.03-3.333-12.961-5.235-20.338-5.235-13.111 0-24.821 5.993-32.544 15.388-6.34-4.888-14.109-8.005-22.576-8.623 3.134-8.364 4.859-17.417 4.859-26.876 0-42.317-34.304-76.621-76.621-76.621-7.508 0-14.757 1.099-21.614 3.112-9.138-9.27-21.835-15.021-35.88-15.021-27.828 0-50.387 22.559-50.387 50.387l-.018 255.675z" fill="#eaf6ff"/><path d="m504.502 288.343v-161.93c0-39.121-31.714-70.834-70.834-70.834-14.161 0-27.339 4.172-38.406 11.329-10.019-12.071-26.41-18.036-42.645-13.976-20.158 5.041-33.241 23.831-31.778 43.869-33.705 5.449-59.448 34.668-59.448 69.911 0 4.479.435 8.855 1.23 13.103-6.03-3.333-12.961-5.235-20.338-5.235-13.111 0-24.821 5.993-32.544 15.388-6.34-4.888-14.109-8.005-22.576-8.623 3.134-8.364 4.859-17.417 4.859-26.876 0-42.317-34.304-76.621-76.621-76.621-7.509 0-14.757 1.099-21.614 3.112-9.138-9.269-21.835-15.021-35.88-15.021-27.828 0-50.387 22.559-50.387 50.387v172.018h496.982z" fill="#d9ecfd"/></g><g><g><g><g><g><g><g><path d="m7.502 205.456h497v295.15h-497z" fill="#8dcafc"/><path d="m504.502 328.376v172.23h-497v-109.64c14.59-4.19 38.52-12.64 70.48-29.25 64.51-33.52 98.58-1.89 171.78-25.46 73.21-23.58 123.95-57.13 203.68-22.23 19.98 8.74 36.9 12.95 51.06 14.35z" fill="#c4e1ff"/><path d="m7.502 205.456h497v29.117h-497z" fill="#64b9fc"/></g></g></g></g></g><g><g><path d="m504.502 349.112v151.49h-497v-90.44c0 0 207.45-61.05 497-61.05z" fill="#fee7c9"/><g fill="#ffd496"><ellipse cx="288.778" cy="476.562" rx="70.737" ry="13.821"/><path d="m504.502 349.116v33c-266.82-10.13-497 45.04-497 45.04v-16.99c0 0 207.45-61.05 497-61.05z"/></g></g></g></g><g><g><g><path d="m328.837 243.976h25.556v191.428h-25.556z" fill="#7a6e79" transform="matrix(.983 -.185 .185 .983 -56.811 68.864)"/></g><g><g><path d="m436.57 453.977c-14.045-18.897-39.546-31.531-68.68-31.531-29.133 0-54.635 12.635-68.68 31.531z" fill="#fee7c9"/></g></g></g><g><path d="m472.113 233.539c7.387-1.387 10.524-10.249 5.645-15.967-40.52-47.484-104.623-72.562-170.374-60.218s-116.394 58.963-136.933 117.91c-2.473 7.098 3.664 14.219 11.051 12.832z" fill="#31a7fb"/><path d="m472.109 233.543-32.522 6.106c7.383-1.386 10.525-10.256 5.641-15.968-37.133-43.527-94.089-68.225-153.969-62.537 5.263-1.496 10.638-2.763 16.127-3.794 65.747-12.343 129.851 12.735 170.374 60.223 4.874 5.713 1.742 14.582-5.651 15.97z" fill="#1c96f9"/><path d="m434.434 240.613c-30.124-57.543-79.257-92.23-127.05-83.258-47.794 8.973-81 59.118-88.203 123.668z" fill="#e1dde1"/><path d="m434.434 240.616-32.513 6.104c-26.654-50.899-68.173-83.919-110.48-84.655 5.111-2.094 10.426-3.679 15.944-4.715 47.789-8.972 96.929 25.723 127.049 83.266z" fill="#cbc5cb"/><g><path d="m371.29 252.467c-19.174-59.599-44.153-98.821-63.907-95.112-19.753 3.708-28.806 49.319-25.059 111.814z" fill="#fb4a59"/><path d="m371.292 252.469-25.457 4.779c-14.894-46.309-33.302-80.324-50.04-91.443 3.313-4.722 7.187-7.629 11.59-8.456 19.756-3.708 44.727 35.524 63.907 95.12z" fill="#f82f40"/></g></g></g><g><g><path d="m303.665 397.519h-29.774c-4.988 0-9.214 3.676-9.904 8.617l-8.532 61.076c-.42 3.007 1.915 5.692 4.952 5.692h56.741c3.036 0 5.372-2.684 4.952-5.692l-8.532-61.076c-.689-4.941-4.915-8.617-9.903-8.617z" fill="#fb4a59"/><path d="m322.103 467.211-8.53-61.08c-.69-4.94-4.92-8.61-9.91-8.61h-25.61c4.99 0 9.21 3.67 9.9 8.61l8.54 61.08c.42 3.01-1.92 5.69-4.96 5.69h25.62c3.03 0 5.37-2.68 4.95-5.69z" fill="#f82f40"/></g></g><g><path d="m192.962 427.221c13.062-13.062 13.062-34.24 0-47.302s-34.24-13.062-47.302 0-13.062 34.24 0 47.302z" fill="#27d1b3"/><path d="m192.959 427.225h-25.301c13.059-13.068 13.059-34.247 0-47.307-3.243-3.243-6.995-5.686-10.994-7.32 12.092-4.93 26.487-2.487 36.295 7.32 13.068 13.06 13.068 34.239 0 47.307z" fill="#20b69f"/></g><g><g><path d="m207.221 435.448c-9.392-8.35-22.896-13.591-37.909-13.591s-28.517 5.241-37.909 13.591z" fill="#fee7c9"/></g></g></g></g><g><path d="m480.195 126.033c6.631-2.509 13.987-.734 18.748 4.521 2.781 3.071 7.524 3.304 10.594.524 3.069-2.78 3.305-7.523.523-10.593-8.931-9.86-22.738-13.189-35.176-8.48-10.24 3.877-17.556 12.456-19.915 22.789-10.213-.617-20.426 2.582-28.456 9.031-3.229 2.594-3.744 7.315-1.149 10.544 2.594 3.229 7.314 3.745 10.544 1.15 5.756-4.625 12.948-6.595 20.251-5.554 10.819 1.544 19.438 9.419 21.955 20.062.816 3.451 3.895 5.775 7.292 5.775.572 0 1.153-.065 1.733-.203 4.031-.954 6.525-4.994 5.572-9.025-3.024-12.783-11.666-23.013-23.17-28.193 1.209-5.598 5.132-10.257 10.654-12.348z"/><path d="m7.52 83.533c4.143 0 7.5-3.358 7.5-7.5 0-23.648 19.238-42.887 42.886-42.887 11.565 0 22.411 4.541 30.539 12.786 1.938 1.966 4.802 2.711 7.453 1.931 6.349-1.864 12.91-2.809 19.502-2.809 38.113 0 69.121 31.008 69.121 69.121 0 8.328-1.475 16.485-4.383 24.245-.829 2.213-.566 4.687.708 6.677s3.412 3.263 5.77 3.435c6.762.494 13.174 2.943 18.543 7.083 1.362 1.05 2.974 1.561 4.574 1.561 2.169 0 4.318-.938 5.799-2.738 6.609-8.04 16.359-12.651 26.75-12.651 5.843 0 11.621 1.487 16.709 4.3 2.542 1.405 5.666 1.216 8.02-.483 2.354-1.7 3.516-4.606 2.981-7.46-.731-3.907-1.102-7.851-1.102-11.724 0-31.241 22.351-57.529 53.145-62.507 3.839-.621 6.567-4.072 6.284-7.95-1.227-16.795 9.758-31.955 26.117-36.047 12.838-3.21 26.597 1.3 35.054 11.49 2.427 2.923 6.655 3.569 9.845 1.508 10.243-6.625 22.115-10.127 34.333-10.127 34.923 0 63.334 28.412 63.334 63.334 0 4.142 3.357 7.5 7.5 7.5s7.5-3.358 7.5-7.5c0-43.193-35.141-78.334-78.334-78.334-13.017 0-25.718 3.214-37.089 9.343-12.169-11.243-29.494-15.842-45.781-11.766-21.27 5.319-36.199 23.694-37.483 45.036-15.679 3.897-29.891 12.626-40.527 25.002-12.186 14.18-18.896 32.298-18.896 51.017 0 .583.007 1.167.021 1.751-3.796-.914-7.703-1.383-11.629-1.383-12.599 0-24.539 4.727-33.651 13.156-3.697-2.113-7.641-3.733-11.746-4.828 1.752-6.815 2.637-13.828 2.637-20.939 0-46.384-37.736-84.121-84.121-84.121-6.572 0-13.118.771-19.515 2.296-10.536-9.191-23.861-14.205-37.982-14.205-31.918 0-57.886 25.968-57.886 57.887 0 4.142 3.358 7.5 7.5 7.5z"/><path d="m19.31 159.596c-.953 4.031 1.541 8.071 5.572 9.025.58.138 1.161.203 1.733.203 3.397 0 6.476-2.325 7.292-5.775 2.518-10.642 11.136-18.517 21.954-20.062 10.818-1.546 21.297 3.604 26.692 13.116 2.042 3.603 6.618 4.867 10.224 2.824 3.603-2.043 4.867-6.621 2.823-10.224-7.907-13.945-22.78-21.905-38.552-20.905-2.363-10.326-9.677-18.898-19.912-22.773-12.437-4.709-26.243-1.381-35.175 8.48-2.781 3.07-2.546 7.813.523 10.594 3.069 2.78 7.813 2.546 10.594-.523 4.76-5.255 12.118-7.031 18.747-4.522 5.523 2.091 9.447 6.751 10.654 12.348-11.502 5.181-20.144 15.411-23.169 28.194z"/><path d="m512.002 205.456c0-4.142-3.357-7.5-7.5-7.5h-35.118c-6.563-6.18-13.567-11.917-20.982-17.122-3.389-2.378-8.066-1.56-10.447 1.83-2.38 3.39-1.561 8.068 1.83 10.448 11.98 8.41 22.837 18.277 32.268 29.329.74.867.576 1.774.412 2.237-.164.466-.608 1.278-1.735 1.49l-32.3 6.064c-15.242-27.52-34.768-49.727-56.722-64.424-.911-.61-1.827-1.185-2.742-1.766 11.083 2.537 21.957 6.181 32.486 10.931 3.775 1.704 8.218.024 9.92-3.752 1.704-3.776.024-8.217-3.752-9.921-35.093-15.833-73.69-20.438-111.62-13.317-33.06 6.207-63.829 21.148-88.982 43.211-1.77 1.552-3.499 3.146-5.206 4.761h-204.31c-4.143 0-7.5 3.358-7.5 7.5s3.357 7.5 7.5 7.5h190.122c-12.241 14.438-22.288 30.667-29.715 48.115-1.88-.452-3.232-1.312-5.058-2.481-3.434-2.198-8.136-5.208-16.617-5.208-8.482 0-13.185 3.01-16.618 5.208-2.769 1.771-4.438 2.841-8.531 2.841-4.095 0-5.766-1.069-8.534-2.841-3.435-2.198-8.137-5.207-16.619-5.207s-13.185 3.009-16.619 5.207c-2.769 1.772-4.439 2.841-8.534 2.841-4.143 0-7.5 3.358-7.5 7.5s3.357 7.5 7.5 7.5c8.483 0 13.186-3.01 16.62-5.207 2.769-1.772 4.439-2.841 8.533-2.841s5.765 1.069 8.533 2.841c3.435 2.197 8.137 5.207 16.62 5.207 8.481 0 13.184-3.01 16.617-5.207 2.769-1.772 4.439-2.841 8.532-2.841s5.763 1.069 8.531 2.841c2.032 1.301 4.517 2.882 7.959 3.959-1.027 5.17.343 10.472 3.866 14.567 3.346 3.888 8.054 6.024 13.029 6.024 1.08 0 2.173-.101 3.267-.306l37.652-7.068c.024-.004.048-.009.072-.013l87.653-16.455 14.561 77.562c-46.191 3.983-92.412 9.478-137.503 16.373-4.997-2.122-10.416-3.243-16.009-3.243-10.119 0-19.673 3.652-27.171 10.322-19.77 3.47-39.299 7.216-58.052 11.139-4.054.849-6.653 4.823-5.805 8.877.739 3.537 3.857 5.966 7.333 5.966.509 0 1.026-.052 1.544-.16 14.116-2.953 28.677-5.806 43.451-8.515-3.805 11.116-2.732 23.583 3.346 33.978-2.686 1.681-5.218 3.548-7.539 5.612-3.096 2.752-3.374 7.493-.622 10.588s7.493 3.375 10.589.623c8.36-7.433 20.361-11.696 32.926-11.696s24.565 4.263 32.926 11.696c1.429 1.271 3.208 1.895 4.98 1.895 2.067 0 4.126-.85 5.608-2.517 2.752-3.096 2.474-7.836-.622-10.588-2.321-2.064-4.853-3.931-7.539-5.612 8.34-14.261 7.267-32.426-2.925-45.646 40.752-5.936 82.323-10.726 123.864-14.278l10.429 55.55c-4.231 1.366-8.332 3.019-12.285 4.936l-2.751-19.695c-1.201-8.596-8.652-15.079-17.332-15.079h-29.773c-8.68 0-16.131 6.482-17.332 15.079l-.941 6.738c-7.445-2.815-16.182-1.248-22.166 4.736-3.942 3.942-6.113 9.184-6.113 14.76s2.171 10.817 6.113 14.76l15.251 15.251-.675 4.832c-.501 3.583.574 7.205 2.949 9.934s5.813 4.295 9.431 4.295h56.74c3.618 0 7.056-1.565 9.431-4.295s3.45-6.351 2.949-9.935l-3.576-25.601c12.216-6.871 26.918-10.627 41.938-10.627 25.582 0 49.592 10.922 62.66 28.505 1.472 1.98 3.734 3.026 6.025 3.026 1.555 0 3.124-.482 4.468-1.481 3.325-2.471 4.017-7.169 1.546-10.494-14.576-19.611-38.879-32.06-66.152-34.22l-10.149-54.058c46.105-3.05 92.566-4.613 138.213-4.613 4.143 0 7.5-3.358 7.5-7.5s-3.357-7.5-7.5-7.5c-46.569 0-93.978 1.612-141 4.763l-15.381-81.927 125.376-23.537c6.133-1.151 11.034-5.353 13.112-11.239 2.041-5.78.933-12.001-2.946-16.716h20.838c4.143.001 7.501-3.357 7.501-7.499zm-342.691 208.901c-7.465 0-14.805 1.214-21.641 3.472-6.675-10.111-5.507-23.807 3.294-32.606 4.9-4.901 11.416-7.6 18.347-7.6s13.447 2.699 18.348 7.6c8.8 8.8 9.968 22.496 3.293 32.606-6.836-2.259-14.176-3.472-21.641-3.472zm74.748 21.128c-1.109-1.109-1.721-2.584-1.721-4.153s.611-3.044 1.721-4.153c2.289-2.29 6.016-2.29 8.305 0l.975.975-2.036 14.576zm19.222 29.918 3.347-23.961 13.375 13.374c2.93 2.929 7.678 2.929 10.607 0s2.929-7.678 0-10.606l-21.382-21.382 2.187-15.655c.172-1.229 1.236-2.155 2.477-2.155h29.773c1.24 0 2.305.926 2.477 2.154l8.134 58.23h-50.995zm159.56-230.245-46.483 8.726c-9.274-27.56-19.783-50.582-30.549-66.853-3.09-4.67-6.175-8.743-9.251-12.225 31.874 5.903 63.397 31.194 86.283 70.352zm-133.462 25.056c-.317-7.573-.439-14.914-.359-21.908.048-4.142-3.271-7.538-7.412-7.586-.03 0-.06 0-.089 0-4.102 0-7.45 3.301-7.497 7.413-.092 7.926.068 16.271.468 24.877l-46.473 8.725c7.125-44.776 27.313-79.769 54.862-96.832-2.847 7.765-5.04 17.281-6.552 28.573-.55 4.105 2.333 7.879 6.438 8.429 4.102.546 7.879-2.333 8.429-6.438 3.791-28.315 11.563-39.61 17.573-40.738 6.092-1.138 15.25 6.555 24.532 20.583 9.808 14.823 19.479 35.934 28.164 61.372zm-109.261 20.512c-1.123.209-1.835-.385-2.158-.759-.32-.373-.802-1.158-.427-2.234 9.833-28.219 26.906-53.552 49.375-73.261 5.347-4.69 10.981-9.013 16.842-12.985-.619.844-1.233 1.698-1.838 2.565-15.128 21.659-25.272 49.435-29.495 80.61zm181.035 134.436c-3.556.22-7.065.618-10.518 1.183l-27.631-147.182 10.375-1.948z"/><path d="m.306 412.278c.962 3.268 3.951 5.386 7.192 5.386.701 0 1.413-.099 2.119-.307.157-.046 16.034-4.694 44.485-11.305 4.035-.937 6.546-4.968 5.608-9.002-.938-4.036-4.979-6.547-9.003-5.608-28.928 6.721-44.668 11.332-45.324 11.525-3.972 1.169-6.244 5.337-5.077 9.311z"/><path d="m461.071 274.706c-3.435-2.197-8.137-5.207-16.62-5.207-8.482 0-13.186 3.01-16.619 5.207-2.769 1.772-4.439 2.841-8.533 2.841-4.143 0-7.5 3.358-7.5 7.5s3.357 7.5 7.5 7.5c8.482 0 13.186-3.01 16.619-5.207 2.769-1.772 4.439-2.841 8.533-2.841 4.095 0 5.766 1.069 8.534 2.841 3.435 2.198 8.137 5.207 16.619 5.207 4.143 0 7.5-3.358 7.5-7.5s-3.357-7.5-7.5-7.5c-4.093 0-5.764-1.069-8.533-2.841z"/><path d="m504.502 493.102h-497c-4.143 0-7.5 3.358-7.5 7.5s3.357 7.5 7.5 7.5h497c4.143 0 7.5-3.358 7.5-7.5s-3.358-7.5-7.5-7.5z"/><path d="m36.884 327.382c2.769-1.772 4.439-2.841 8.533-2.841 4.093 0 5.764 1.069 8.532 2.841 3.434 2.198 8.137 5.207 16.619 5.207 8.481 0 13.184-3.009 16.617-5.207 2.768-1.771 4.438-2.841 8.531-2.841s5.764 1.069 8.531 2.841c3.433 2.198 8.135 5.207 16.616 5.207 8.482 0 13.185-3.009 16.619-5.207 2.769-1.772 4.439-2.841 8.533-2.841s5.765 1.069 8.533 2.841c3.435 2.197 8.137 5.207 16.619 5.207 8.481 0 13.184-3.009 16.617-5.207 2.768-1.771 4.438-2.841 8.531-2.841 4.092 0 5.763 1.069 8.53 2.841 3.434 2.197 8.136 5.207 16.617 5.207 4.143 0 7.5-3.358 7.5-7.5s-3.357-7.5-7.5-7.5c-4.093 0-5.764-1.069-8.531-2.841-3.433-2.198-8.135-5.207-16.616-5.207s-13.184 3.009-16.617 5.207c-2.768 1.771-4.438 2.841-8.531 2.841-4.094 0-5.765-1.069-8.533-2.841-3.435-2.197-8.137-5.207-16.619-5.207s-13.185 3.009-16.619 5.207c-2.769 1.772-4.439 2.841-8.533 2.841-4.092 0-5.763-1.069-8.53-2.841-3.434-2.197-8.136-5.207-16.617-5.207s-13.184 3.009-16.617 5.207c-2.768 1.771-4.438 2.841-8.531 2.841-4.094 0-5.765-1.069-8.533-2.841-3.434-2.197-8.137-5.207-16.618-5.207-8.482 0-13.185 3.009-16.619 5.207-2.769 1.772-4.439 2.841-8.533 2.841-4.143 0-7.5 3.358-7.5 7.5s3.357 7.5 7.5 7.5c8.482 0 13.184-3.009 16.619-5.207z"/><path d="m463.489 399.021c4.143 0 7.5-3.358 7.5-7.5s-3.357-7.5-7.5-7.5h-10.771c-4.143 0-7.5 3.358-7.5 7.5s3.357 7.5 7.5 7.5z"/><path d="m96.55 455.318c4.143 0 7.5-3.358 7.5-7.5s-3.357-7.5-7.5-7.5h-10.773c-4.143 0-7.5 3.358-7.5 7.5s3.357 7.5 7.5 7.5z"/><path d="m155.537 473.866c4.143 0 7.5-3.358 7.5-7.5s-3.357-7.5-7.5-7.5h-10.771c-4.143 0-7.5 3.358-7.5 7.5s3.357 7.5 7.5 7.5z"/><path d="m398.113 465.224c4.143 0 7.5-3.358 7.5-7.5s-3.357-7.5-7.5-7.5h-10.771c-4.143 0-7.5 3.358-7.5 7.5s3.357 7.5 7.5 7.5z"/></g></g></svg>