<svg id="Capa_1" enable-background="new 0 0 511.98 511.98" height="512" viewBox="0 0 511.98 511.98" width="512" xmlns="http://www.w3.org/2000/svg"><g><g><g><path d="m270.386 172.315h34.811v125.616h-34.811z" fill="#dbedff"/></g><path d="m121.524 376.732-16.396 33.833 1.612 2.827h178.754l2.483-3.994v-32.666z" fill="#b5dcff"/><g><path d="m123.849 376.732h-32.887l-16 33.413 1.56 3.247h30.218z" fill="#8bcaff"/></g><path d="m461.628 495.155h4.112c5.301-5.358 7.074-13.934 3.821-21.391l-6.56-15.032h-17.336z" fill="#dbedff"/><path d="m315.683 480.44 5.695 14.715h3.771c1.551-1.567 2.867-3.455 3.824-5.648l13.43-30.776h-17.214z" fill="#dbedff"/><path d="m461.917 489.507-13.43-30.776h-23.9l13.43 30.776c4.063 9.31 14.415 13.344 23.133 8.995 1.738-.867 3.269-2.012 4.591-3.347-1.552-1.567-2.867-3.455-3.824-5.648z" fill="#b5dcff"/><path d="m321.328 473.764 6.56-15.032h-23.9l-6.56 15.032c-4.064 9.316-.299 20.392 8.412 24.739 6.665 3.325 14.275 1.738 19.31-3.347-5.302-5.359-7.076-13.935-3.822-21.392z" fill="#b5dcff"/><path d="m276.753 47.19-2.38-3.195c-65.587 5.826-119.006 53.95-132.807 116.909-1.593 7.266 3.862 14.163 11.3 14.163h63.578l8.184-4.752h52.125z" fill="#ff5595"/><path d="m434.015 160.904c-13.801-62.959-67.22-111.083-132.807-116.909l-1.33 3.195v123.125h53l6.26 4.752h63.577c7.438 0 12.892-6.897 11.3-14.163z" fill="#ff76aa"/><path d="m359.138 175.067c-12.281-68.492-33.282-117.781-57.929-131.072-4.42-.393-8.896-.594-13.417-.594-4.522 0-8.998.202-13.418.595-24.647 13.292-45.648 62.58-57.929 131.072h142.693z" fill="#ff5595"/><path d="m301.072 43.984c-4.376-.385-8.806-.584-13.281-.584-4.522 0-8.998.202-13.418.595-24.647 13.292-45.648 62.58-57.929 131.072h49.772c8.225-60.001 20.405-106.436 34.856-131.083z" fill="#ff0263"/><path d="m287.791 43.4c5.888 0 11.694.347 17.405 1.008v-15.27c0-9.613-7.793-17.405-17.405-17.405-9.613 0-17.405 7.793-17.405 17.405v15.27c5.71-.661 11.517-1.008 17.405-1.008z" fill="#dbedff"/><path d="m139.373 339.898-18.664 38.514h164.785l5.801-4.18 1.333-19.667 9.667-5.667v-9z" fill="#dbedff"/><g><path d="m96.787 378.412h26.277l13.424-28.766c2.409-5.161 7.156-8.744 12.634-9.748h-61.827l-5.534 3.704c-6.763 0-12.912 3.917-15.772 10.044l-56.858 121.837c-4.064 8.712-.299 19.069 8.412 23.133 8.73 4.07 19.074.286 23.133-8.411l50.502-108.22c1.017-2.179 3.204-3.573 5.609-3.573z" fill="#b5dcff"/></g><path d="m487.392 257.983-9.326-8.687h-3.938l-94.5 90.602v6.667h47.5l5.811-2.963 54.996-54.996c8.52-8.52 8.274-22.409-.543-30.623z" fill="#dbedff"/><path d="m497.527 196.195c-9.29-9.289-24.351-9.289-33.64 0l-94.325 94.324c-3.527 3.527-8.311 5.509-13.3 5.509h-299.687c-13.336 0-24.571 10.913-24.318 24.247.245 12.925 10.799 23.327 23.783 23.327h327.72l113.767-113.767c9.29-9.29 9.29-24.351 0-33.64z" fill="#ffaa5b"/><g><path d="m109.755 320.275c-.253-13.333 10.982-24.247 24.318-24.247h-77.498c-13.336 0-24.571 10.914-24.318 24.247.245 12.925 10.799 23.327 23.783 23.327h77.498c-12.984 0-23.538-10.402-23.783-23.327z" fill="#ff9838"/></g><path d="m471.916 343.602h-132.264l-6.357 6.463v108.667l6.159 2.695h132.462c5.29 0 9.579-4.289 9.579-9.579v-98.667c-.001-5.29-4.289-9.579-9.579-9.579z" fill="#ffe02f"/><path d="m336.293 451.848v-98.667c0-5.29 4.289-9.579 9.579-9.579h-50.798c-5.29 0-9.579 4.288-9.579 9.579v98.667c0 5.29 4.289 9.579 9.579 9.579h50.798c-5.291-.001-9.579-4.289-9.579-9.579z" fill="#fbc700"/></g><g><path d="m502.832 190.891c-12.2-12.198-32.048-12.198-44.247 0l-94.325 94.324c-2.136 2.136-4.976 3.312-7.996 3.312h-43.566v-35.481c0-4.142-3.357-7.5-7.5-7.5s-7.5 3.358-7.5 7.5v35.48h-19.811v-105.96h19.811v35.48c0 4.142 3.357 7.5 7.5 7.5s7.5-3.358 7.5-7.5v-35.48h110.019c12.204 0 21.249-11.301 18.626-23.269-13.397-61.102-63.1-110.834-128.646-121.392v-8.766c0-13.733-11.173-24.905-24.905-24.905s-24.905 11.172-24.905 24.905v8.766c-65.536 10.556-115.248 60.278-128.646 121.393-2.623 11.97 6.424 23.269 18.626 23.269h110.02v105.961h-206.311c-17.282 0-32.154 14.115-31.817 31.889.321 16.92 14.354 30.685 31.282 30.685h2.859l-56.565 121.21c-5.807 12.445-.406 27.294 12.04 33.102 12.447 5.803 27.294.401 33.099-12.038l33.825-72.484h89.442c4.143 0 7.5-3.358 7.5-7.5s-3.357-7.5-7.5-7.5h-82.443l9.323-19.979h180.373v19.979h-72.254c-4.143 0-7.5 3.358-7.5 7.5s3.357 7.5 7.5 7.5h72.254v30.956c0 8.479 6.218 15.515 14.33 16.836l-1.693 3.628c-5.807 12.445-.407 27.294 12.037 33.101 12.448 5.805 27.296.402 33.101-12.037l11.411-24.45h72.631l11.41 24.45c5.809 12.447 20.659 17.84 33.101 12.037 12.444-5.806 17.845-20.655 12.037-33.102l-1.693-3.627c8.112-1.321 14.33-8.357 14.33-16.836v-98.667c0-9.417-7.661-17.079-17.078-17.079h-20.871l42.193-42.192c11.518-11.519 11.224-30.274-.734-41.414l-3.64-3.39 13.967-13.967c12.197-12.2 12.197-32.049-.001-44.248zm-76.143-28.38c.572 2.611-1.344 5.057-3.974 5.057h-57.337c-6.433-33.789-18.898-82.927-40.365-111.631 49.97 13.736 90.234 54.376 101.676 106.574zm-148.803-133.372c0-5.462 4.443-9.905 9.905-9.905s9.905 4.443 9.905 9.905v7.074c-6.68-.42-13.524-.398-19.811 0v-7.074zm-125.019 138.428c-2.634 0-4.545-2.448-3.974-5.057 11.442-52.198 51.706-92.837 101.675-106.574-21.467 28.704-33.932 77.842-40.365 111.631zm72.611 0c11.905-60.954 30.743-103.858 51.135-116.213 7.611-.606 15.23-.57 22.356 0 20.392 12.355 39.23 55.259 51.135 116.213-11.639 0-113.149 0-124.626 0zm52.517 203.345h-181.207c-5.182 0-10.121 3.006-12.406 7.901l-50.502 108.22c-2.309 4.948-8.213 7.094-13.165 4.787-4.949-2.31-7.096-8.215-4.787-13.165l56.857-121.835c1.621-3.473 5.145-5.717 8.977-5.717h196.233zm44.182 116.121c-2.31 4.949-8.218 7.096-13.166 4.787-4.949-2.309-7.096-8.215-4.786-13.166l4.539-9.728h21.862zm135.802 4.786c-4.952 2.309-10.857.161-13.165-4.786l-8.45-18.107h21.861l4.54 9.728c2.31 4.95.162 10.856-4.786 13.165zm13.938-140.717c1.146 0 2.078.933 2.078 2.079v98.667c0 1.146-.933 2.079-2.078 2.079-8.757 0-169.556 0-176.843 0-1.146 0-2.079-.933-2.079-2.079 0-9.281 0-88.242 0-98.667 0-1.146.933-2.079 2.079-2.079zm10.714-67.799-52.799 52.799h-27.965l76.384-76.383 4.029 3.752c5.707 5.317 5.886 14.298.351 19.832zm9.593-58.771c-5.366 5.366-106.395 106.394-111.571 111.57-13.14 0-285.814 0-298.892 0h-25.72c-8.812 0-16.117-7.164-16.284-15.969-.176-9.238 7.797-16.604 16.819-16.604h299.688c7.027 0 13.634-2.737 18.604-7.706l94.325-94.324c6.35-6.35 16.683-6.35 23.032 0 6.35 6.35 6.35 16.682-.001 23.033z"/></g></g></svg>